<svg width="1024" height="753" viewBox="0 0 1024 753" fill="none" xmlns="http://www.w3.org/2000/svg">
<g clip-path="url(#clip0_122_130)">
<rect width="1024" height="753" fill="#121214"/>
<g opacity="0.2" filter="url(#filter0_f_122_130)">
<ellipse cx="502.5" cy="243" rx="670.5" ry="350" fill="#338AF3"/>
</g>
<path d="M23.0349 479C24.5302 479 25.6622 479.63 26.4308 480.891C27.2134 482.138 27.6047 483.953 27.6047 486.336C27.6047 488.719 27.2134 490.541 26.4308 491.802C25.6622 493.063 24.5302 493.693 23.0349 493.693C21.5536 493.693 20.4216 493.063 19.639 491.802C18.8564 490.541 18.4651 488.719 18.4651 486.336C18.4651 483.967 18.8564 482.152 19.639 480.891C20.4216 479.63 21.5536 479 23.0349 479ZM19.9534 486.336C19.9534 488.026 20.1072 489.35 20.4146 490.306L25.0683 481.099C24.5791 480.448 23.9013 480.122 23.0349 480.122C22.0706 480.122 21.316 480.635 20.771 481.66C20.2259 482.672 19.9534 484.23 19.9534 486.336ZM23.0349 492.55C24.0131 492.55 24.7748 492.044 25.3198 491.033C25.8648 490.008 26.1373 488.442 26.1373 486.336C26.1373 484.549 25.9627 483.163 25.6133 482.18L20.9596 491.469C21.4627 492.19 22.1545 492.55 23.0349 492.55Z" fill="url(#paint0_linear_122_130)" fill-opacity="0.6"/>
<path d="M24.2926 516.135H27.3741V517.236H19.3874V516.135H22.9511V504.455L19.5551 506.471L18.9682 505.536L23.1607 502.959H24.2926V516.135Z" fill="url(#paint1_linear_122_130)" fill-opacity="0.6"/>
<path d="M23.0349 526.502C24.5302 526.502 25.6622 527.133 26.4308 528.393C27.2134 529.64 27.6047 531.455 27.6047 533.838C27.6047 536.221 27.2134 538.043 26.4308 539.304C25.6622 540.565 24.5302 541.195 23.0349 541.195C21.5536 541.195 20.4216 540.565 19.639 539.304C18.8564 538.043 18.4651 536.221 18.4651 533.838C18.4651 531.469 18.8564 529.654 19.639 528.393C20.4216 527.133 21.5536 526.502 23.0349 526.502ZM19.9534 533.838C19.9534 535.529 20.1072 536.852 20.4146 537.808L25.0683 528.601C24.5791 527.95 23.9013 527.624 23.0349 527.624C22.0706 527.624 21.316 528.137 20.771 529.162C20.2259 530.174 19.9534 531.732 19.9534 533.838ZM23.0349 540.052C24.0131 540.052 24.7748 539.546 25.3198 538.535C25.8648 537.51 26.1373 535.944 26.1373 533.838C26.1373 532.051 25.9627 530.665 25.6133 529.682L20.9596 538.971C21.4627 539.692 22.1545 540.052 23.0349 540.052Z" fill="url(#paint2_linear_122_130)" fill-opacity="0.6"/>
<path d="M24.2926 563.637H27.3741V564.738H19.3874V563.637H22.9511V551.957L19.5551 553.973L18.9682 553.038L23.1607 550.461H24.2926V563.637Z" fill="url(#paint3_linear_122_130)" fill-opacity="0.6"/>
<path d="M24.2926 587.388H27.3741V588.489H19.3874V587.388H22.9511V575.708L19.5551 577.724L18.9682 576.789L23.1607 574.212H24.2926V587.388Z" fill="url(#paint4_linear_122_130)" fill-opacity="0.6"/>
<path d="M23.0349 597.755C24.5302 597.755 25.6622 598.386 26.4308 599.646C27.2134 600.893 27.6047 602.708 27.6047 605.091C27.6047 607.474 27.2134 609.296 26.4308 610.557C25.6622 611.818 24.5302 612.448 23.0349 612.448C21.5536 612.448 20.4216 611.818 19.639 610.557C18.8564 609.296 18.4651 607.474 18.4651 605.091C18.4651 602.722 18.8564 600.907 19.639 599.646C20.4216 598.386 21.5536 597.755 23.0349 597.755ZM19.9534 605.091C19.9534 606.782 20.1072 608.105 20.4146 609.061L25.0683 599.854C24.5791 599.203 23.9013 598.878 23.0349 598.878C22.0706 598.878 21.316 599.39 20.771 600.415C20.2259 601.427 19.9534 602.985 19.9534 605.091ZM23.0349 611.305C24.0131 611.305 24.7748 610.8 25.3198 609.788C25.8648 608.763 26.1373 607.197 26.1373 605.091C26.1373 603.304 25.9627 601.919 25.6133 600.935L20.9596 610.225C21.4627 610.945 22.1545 611.305 23.0349 611.305Z" fill="url(#paint5_linear_122_130)" fill-opacity="0.6"/>
<path d="M24.2926 634.89H27.3741V635.992H19.3874V634.89H22.9511V623.21L19.5551 625.226L18.9682 624.291L23.1607 621.714H24.2926V634.89Z" fill="url(#paint6_linear_122_130)" fill-opacity="0.6"/>
<path d="M23.0349 645.257C24.5302 645.257 25.6622 645.888 26.4308 647.149C27.2134 648.396 27.6047 650.211 27.6047 652.594C27.6047 654.977 27.2134 656.798 26.4308 658.059C25.6622 659.32 24.5302 659.95 23.0349 659.95C21.5536 659.95 20.4216 659.32 19.639 658.059C18.8564 656.798 18.4651 654.977 18.4651 652.594C18.4651 650.224 18.8564 648.409 19.639 647.149C20.4216 645.888 21.5536 645.257 23.0349 645.257ZM19.9534 652.594C19.9534 654.284 20.1072 655.607 20.4146 656.563L25.0683 647.356C24.5791 646.705 23.9013 646.38 23.0349 646.38C22.0706 646.38 21.316 646.892 20.771 647.918C20.2259 648.929 19.9534 650.488 19.9534 652.594ZM23.0349 658.807C24.0131 658.807 24.7748 658.302 25.3198 657.29C25.8648 656.265 26.1373 654.699 26.1373 652.594C26.1373 650.806 25.9627 649.421 25.6133 648.437L20.9596 657.727C21.4627 658.447 22.1545 658.807 23.0349 658.807Z" fill="url(#paint7_linear_122_130)" fill-opacity="0.6"/>
<path d="M23.0349 669.008C24.5302 669.008 25.6622 669.639 26.4308 670.9C27.2134 672.147 27.6047 673.962 27.6047 676.345C27.6047 678.728 27.2134 680.549 26.4308 681.81C25.6622 683.071 24.5302 683.701 23.0349 683.701C21.5536 683.701 20.4216 683.071 19.639 681.81C18.8564 680.549 18.4651 678.728 18.4651 676.345C18.4651 673.975 18.8564 672.16 19.639 670.9C20.4216 669.639 21.5536 669.008 23.0349 669.008ZM19.9534 676.345C19.9534 678.035 20.1072 679.358 20.4146 680.314L25.0683 671.107C24.5791 670.456 23.9013 670.131 23.0349 670.131C22.0706 670.131 21.316 670.643 20.771 671.669C20.2259 672.68 19.9534 674.239 19.9534 676.345ZM23.0349 682.558C24.0131 682.558 24.7748 682.053 25.3198 681.041C25.8648 680.016 26.1373 678.451 26.1373 676.345C26.1373 674.557 25.9627 673.172 25.6133 672.188L20.9596 681.478C21.4627 682.198 22.1545 682.558 23.0349 682.558Z" fill="url(#paint8_linear_122_130)" fill-opacity="0.6"/>
<path d="M24.2926 706.143H27.3741V707.245H19.3874V706.143H22.9511V694.464L19.5551 696.48L18.9682 695.544L23.1607 692.967H24.2926V706.143Z" fill="url(#paint9_linear_122_130)" fill-opacity="0.6"/>
<path d="M23.0349 716.511C24.5302 716.511 25.6622 717.141 26.4308 718.402C27.2134 719.649 27.6047 721.464 27.6047 723.847C27.6047 726.23 27.2134 728.052 26.4308 729.312C25.6622 730.573 24.5302 731.204 23.0349 731.204C21.5536 731.204 20.4216 730.573 19.639 729.312C18.8564 728.052 18.4651 726.23 18.4651 723.847C18.4651 721.478 18.8564 719.663 19.639 718.402C20.4216 717.141 21.5536 716.511 23.0349 716.511ZM19.9534 723.847C19.9534 725.537 20.1072 726.86 20.4146 727.816L25.0683 718.61C24.5791 717.958 23.9013 717.633 23.0349 717.633C22.0706 717.633 21.316 718.145 20.771 719.171C20.2259 720.182 19.9534 721.741 19.9534 723.847ZM23.0349 730.061C24.0131 730.061 24.7748 729.555 25.3198 728.543C25.8648 727.518 26.1373 725.953 26.1373 723.847C26.1373 722.059 25.9627 720.674 25.6133 719.69L20.9596 728.98C21.4627 729.7 22.1545 730.061 23.0349 730.061Z" fill="url(#paint10_linear_122_130)" fill-opacity="0.6"/>
<path d="M24.2926 753.645H27.3741V754.747H19.3874V753.645H22.9511V741.966L19.5551 743.982L18.9682 743.046L23.1607 740.469H24.2926V753.645Z" fill="url(#paint11_linear_122_130)" fill-opacity="0.6"/>
<path d="M24.2926 777.396H27.3741V778.498H19.3874V777.396H22.9511V765.717L19.5551 767.733L18.9682 766.798L23.1607 764.221H24.2926V777.396Z" fill="url(#paint12_linear_122_130)" fill-opacity="0.6"/>
<path d="M61.9651 526.502C63.4604 526.502 64.5924 527.133 65.361 528.393C66.1436 529.64 66.5349 531.455 66.5349 533.838C66.5349 536.221 66.1436 538.043 65.361 539.304C64.5924 540.565 63.4604 541.195 61.9651 541.195C60.4838 541.195 59.3518 540.565 58.5692 539.304C57.7866 538.043 57.3953 536.221 57.3953 533.838C57.3953 531.469 57.7866 529.654 58.5692 528.393C59.3518 527.133 60.4838 526.502 61.9651 526.502ZM58.8836 533.838C58.8836 535.529 59.0374 536.852 59.3448 537.808L63.9985 528.601C63.5093 527.95 62.8315 527.624 61.9651 527.624C61.0008 527.624 60.2462 528.137 59.7012 529.162C59.1561 530.174 58.8836 531.732 58.8836 533.838ZM61.9651 540.052C62.9433 540.052 63.705 539.546 64.25 538.535C64.795 537.51 65.0675 535.944 65.0675 533.838C65.0675 532.051 64.8928 530.665 64.5435 529.682L59.8898 538.971C60.3929 539.692 61.0847 540.052 61.9651 540.052Z" fill="url(#paint13_linear_122_130)" fill-opacity="0.6"/>
<path d="M63.2228 563.637H66.3043V564.738H58.3176V563.637H61.8812V551.957L58.4853 553.973L57.8984 553.038L62.0909 550.461H63.2228V563.637Z" fill="url(#paint14_linear_122_130)" fill-opacity="0.6"/>
<path d="M61.9651 574.004C63.4604 574.004 64.5924 574.635 65.361 575.895C66.1436 577.142 66.5349 578.957 66.5349 581.34C66.5349 583.723 66.1436 585.545 65.361 586.806C64.5924 588.067 63.4604 588.697 61.9651 588.697C60.4838 588.697 59.3518 588.067 58.5692 586.806C57.7866 585.545 57.3953 583.723 57.3953 581.34C57.3953 578.971 57.7866 577.156 58.5692 575.895C59.3518 574.635 60.4838 574.004 61.9651 574.004ZM58.8836 581.34C58.8836 583.031 59.0374 584.354 59.3448 585.31L63.9985 576.103C63.5093 575.452 62.8315 575.126 61.9651 575.126C61.0008 575.126 60.2462 575.639 59.7012 576.664C59.1561 577.676 58.8836 579.234 58.8836 581.34ZM61.9651 587.554C62.9433 587.554 63.705 587.049 64.25 586.037C64.795 585.012 65.0675 583.446 65.0675 581.34C65.0675 579.553 64.8928 578.168 64.5435 577.184L59.8898 586.474C60.3929 587.194 61.0847 587.554 61.9651 587.554Z" fill="url(#paint15_linear_122_130)" fill-opacity="0.6"/>
<path d="M61.9651 597.755C63.4604 597.755 64.5924 598.386 65.361 599.646C66.1436 600.893 66.5349 602.708 66.5349 605.091C66.5349 607.474 66.1436 609.296 65.361 610.557C64.5924 611.818 63.4604 612.448 61.9651 612.448C60.4838 612.448 59.3518 611.818 58.5692 610.557C57.7866 609.296 57.3953 607.474 57.3953 605.091C57.3953 602.722 57.7866 600.907 58.5692 599.646C59.3518 598.386 60.4838 597.755 61.9651 597.755ZM58.8836 605.091C58.8836 606.782 59.0374 608.105 59.3448 609.061L63.9985 599.854C63.5093 599.203 62.8315 598.878 61.9651 598.878C61.0008 598.878 60.2462 599.39 59.7012 600.415C59.1561 601.427 58.8836 602.985 58.8836 605.091ZM61.9651 611.305C62.9433 611.305 63.705 610.8 64.25 609.788C64.795 608.763 65.0675 607.197 65.0675 605.091C65.0675 603.304 64.8928 601.919 64.5435 600.935L59.8898 610.225C60.3929 610.945 61.0847 611.305 61.9651 611.305Z" fill="url(#paint16_linear_122_130)" fill-opacity="0.6"/>
<path d="M63.2228 634.89H66.3043V635.992H58.3176V634.89H61.8812V623.21L58.4853 625.226L57.8984 624.291L62.0909 621.714H63.2228V634.89Z" fill="url(#paint17_linear_122_130)" fill-opacity="0.6"/>
<path d="M61.9651 645.257C63.4604 645.257 64.5924 645.888 65.361 647.149C66.1436 648.396 66.5349 650.211 66.5349 652.594C66.5349 654.977 66.1436 656.798 65.361 658.059C64.5924 659.32 63.4604 659.95 61.9651 659.95C60.4838 659.95 59.3518 659.32 58.5692 658.059C57.7866 656.798 57.3953 654.977 57.3953 652.594C57.3953 650.224 57.7866 648.409 58.5692 647.149C59.3518 645.888 60.4838 645.257 61.9651 645.257ZM58.8836 652.594C58.8836 654.284 59.0374 655.607 59.3448 656.563L63.9985 647.356C63.5093 646.705 62.8315 646.38 61.9651 646.38C61.0008 646.38 60.2462 646.892 59.7012 647.918C59.1561 648.929 58.8836 650.488 58.8836 652.594ZM61.9651 658.807C62.9433 658.807 63.705 658.302 64.25 657.29C64.795 656.265 65.0675 654.699 65.0675 652.594C65.0675 650.806 64.8928 649.421 64.5435 648.437L59.8898 657.727C60.3929 658.447 61.0847 658.807 61.9651 658.807Z" fill="url(#paint18_linear_122_130)" fill-opacity="0.6"/>
<path d="M63.2228 682.392H66.3043V683.494H58.3176V682.392H61.8812V670.713L58.4853 672.728L57.8984 671.793L62.0909 669.216H63.2228V682.392Z" fill="url(#paint19_linear_122_130)" fill-opacity="0.6"/>
<path d="M61.9651 692.76C63.4604 692.76 64.5924 693.39 65.361 694.651C66.1436 695.898 66.5349 697.713 66.5349 700.096C66.5349 702.479 66.1436 704.301 65.361 705.561C64.5924 706.822 63.4604 707.453 61.9651 707.453C60.4838 707.453 59.3518 706.822 58.5692 705.561C57.7866 704.301 57.3953 702.479 57.3953 700.096C57.3953 697.726 57.7866 695.911 58.5692 694.651C59.3518 693.39 60.4838 692.76 61.9651 692.76ZM58.8836 700.096C58.8836 701.786 59.0374 703.109 59.3448 704.065L63.9985 694.859C63.5093 694.207 62.8315 693.882 61.9651 693.882C61.0008 693.882 60.2462 694.394 59.7012 695.42C59.1561 696.431 58.8836 697.99 58.8836 700.096ZM61.9651 706.31C62.9433 706.31 63.705 705.804 64.25 704.792C64.795 703.767 65.0675 702.202 65.0675 700.096C65.0675 698.308 64.8928 696.923 64.5435 695.939L59.8898 705.229C60.3929 705.949 61.0847 706.31 61.9651 706.31Z" fill="url(#paint20_linear_122_130)" fill-opacity="0.6"/>
<path d="M61.9651 716.511C63.4604 716.511 64.5924 717.141 65.361 718.402C66.1436 719.649 66.5349 721.464 66.5349 723.847C66.5349 726.23 66.1436 728.052 65.361 729.312C64.5924 730.573 63.4604 731.204 61.9651 731.204C60.4838 731.204 59.3518 730.573 58.5692 729.312C57.7866 728.052 57.3953 726.23 57.3953 723.847C57.3953 721.478 57.7866 719.663 58.5692 718.402C59.3518 717.141 60.4838 716.511 61.9651 716.511ZM58.8836 723.847C58.8836 725.537 59.0374 726.86 59.3448 727.816L63.9985 718.61C63.5093 717.958 62.8315 717.633 61.9651 717.633C61.0008 717.633 60.2462 718.145 59.7012 719.171C59.1561 720.182 58.8836 721.741 58.8836 723.847ZM61.9651 730.061C62.9433 730.061 63.705 729.555 64.25 728.543C64.795 727.518 65.0675 725.953 65.0675 723.847C65.0675 722.059 64.8928 720.674 64.5435 719.69L59.8898 728.98C60.3929 729.7 61.0847 730.061 61.9651 730.061Z" fill="url(#paint21_linear_122_130)" fill-opacity="0.6"/>
<path d="M63.2228 753.645H66.3043V754.747H58.3176V753.645H61.8812V741.966L58.4853 743.982L57.8984 743.046L62.0909 740.469H63.2228V753.645Z" fill="url(#paint22_linear_122_130)" fill-opacity="0.6"/>
<path d="M61.9651 764.013C63.4604 764.013 64.5924 764.643 65.361 765.904C66.1436 767.151 66.5349 768.966 66.5349 771.349C66.5349 773.732 66.1436 775.554 65.361 776.815C64.5924 778.075 63.4604 778.706 61.9651 778.706C60.4838 778.706 59.3518 778.075 58.5692 776.815C57.7866 775.554 57.3953 773.732 57.3953 771.349C57.3953 768.98 57.7866 767.165 58.5692 765.904C59.3518 764.643 60.4838 764.013 61.9651 764.013ZM58.8836 771.349C58.8836 773.039 59.0374 774.362 59.3448 775.318L63.9985 766.112C63.5093 765.461 62.8315 765.135 61.9651 765.135C61.0008 765.135 60.2462 765.648 59.7012 766.673C59.1561 767.684 58.8836 769.243 58.8836 771.349ZM61.9651 777.563C62.9433 777.563 63.705 777.057 64.25 776.046C64.795 775.02 65.0675 773.455 65.0675 771.349C65.0675 769.562 64.8928 768.176 64.5435 767.192L59.8898 776.482C60.3929 777.202 61.0847 777.563 61.9651 777.563Z" fill="url(#paint23_linear_122_130)" fill-opacity="0.6"/>
<path d="M63.2228 801.148H66.3043V802.249H58.3176V801.148H61.8812V789.468L58.4853 791.484L57.8984 790.549L62.0909 787.972H63.2228V801.148Z" fill="url(#paint24_linear_122_130)" fill-opacity="0.6"/>
<path d="M63.2228 824.899H66.3043V826H58.3176V824.899H61.8812V813.219L58.4853 815.235L57.8984 814.3L62.0909 811.723H63.2228V824.899Z" fill="url(#paint25_linear_122_130)" fill-opacity="0.6"/>
<path d="M3.56981 550.253C5.06512 550.253 6.1971 550.884 6.96572 552.144C7.74831 553.391 8.13961 555.206 8.13961 557.589C8.13961 559.972 7.74831 561.794 6.96572 563.055C6.1971 564.316 5.06512 564.946 3.56981 564.946C2.08846 564.946 0.956492 564.316 0.173895 563.055C-0.608701 561.794 -1 559.972 -1 557.589C-1 555.22 -0.608701 553.405 0.173895 552.144C0.956492 550.884 2.08846 550.253 3.56981 550.253ZM0.488331 557.589C0.488331 559.28 0.642056 560.603 0.949505 561.559L5.60316 552.352C5.11404 551.701 4.43625 551.375 3.56981 551.375C2.60553 551.375 1.85089 551.888 1.30587 552.913C0.760843 553.925 0.488331 555.483 0.488331 557.589ZM3.56981 563.803C4.54805 563.803 5.30969 563.297 5.85471 562.286C6.39973 561.261 6.67224 559.695 6.67224 557.589C6.67224 555.802 6.49756 554.417 6.14818 553.433L1.49453 562.722C1.99763 563.443 2.68938 563.803 3.56981 563.803Z" fill="url(#paint26_linear_122_130)" fill-opacity="0.6"/>
<path d="M3.56981 574.004C5.06512 574.004 6.1971 574.635 6.96572 575.895C7.74831 577.142 8.13961 578.957 8.13961 581.34C8.13961 583.723 7.74831 585.545 6.96572 586.806C6.1971 588.067 5.06512 588.697 3.56981 588.697C2.08846 588.697 0.956492 588.067 0.173895 586.806C-0.608701 585.545 -1 583.723 -1 581.34C-1 578.971 -0.608701 577.156 0.173895 575.895C0.956492 574.635 2.08846 574.004 3.56981 574.004ZM0.488331 581.34C0.488331 583.031 0.642056 584.354 0.949505 585.31L5.60316 576.103C5.11404 575.452 4.43625 575.126 3.56981 575.126C2.60553 575.126 1.85089 575.639 1.30587 576.664C0.760843 577.676 0.488331 579.234 0.488331 581.34ZM3.56981 587.554C4.54805 587.554 5.30969 587.049 5.85471 586.037C6.39973 585.012 6.67224 583.446 6.67224 581.34C6.67224 579.553 6.49756 578.168 6.14818 577.184L1.49453 586.474C1.99763 587.194 2.68938 587.554 3.56981 587.554Z" fill="url(#paint27_linear_122_130)" fill-opacity="0.6"/>
<path d="M4.82755 611.139H7.90903V612.24H-0.0776539V611.139H3.48596V599.459L0.0900455 601.475L-0.496902 600.54L3.69558 597.963H4.82755V611.139Z" fill="url(#paint28_linear_122_130)" fill-opacity="0.6"/>
<path d="M3.56981 621.506C5.06512 621.506 6.1971 622.137 6.96572 623.398C7.74831 624.644 8.13961 626.459 8.13961 628.842C8.13961 631.225 7.74831 633.047 6.96572 634.308C6.1971 635.569 5.06512 636.199 3.56981 636.199C2.08846 636.199 0.956492 635.569 0.173895 634.308C-0.608701 633.047 -1 631.225 -1 628.842C-1 626.473 -0.608701 624.658 0.173895 623.398C0.956492 622.137 2.08846 621.506 3.56981 621.506ZM0.488331 628.842C0.488331 630.533 0.642056 631.856 0.949505 632.812L5.60316 623.605C5.11404 622.954 4.43625 622.629 3.56981 622.629C2.60553 622.629 1.85089 623.141 1.30587 624.166C0.760843 625.178 0.488331 626.737 0.488331 628.842ZM3.56981 635.056C4.54805 635.056 5.30969 634.551 5.85471 633.539C6.39973 632.514 6.67224 630.948 6.67224 628.842C6.67224 627.055 6.49756 625.67 6.14818 624.686L1.49453 633.976C1.99763 634.696 2.68938 635.056 3.56981 635.056Z" fill="url(#paint29_linear_122_130)" fill-opacity="0.6"/>
<path d="M4.82755 658.641H7.90903V659.743H-0.0776539V658.641H3.48596V646.962L0.0900455 648.977L-0.496902 648.042L3.69558 645.465H4.82755V658.641Z" fill="url(#paint30_linear_122_130)" fill-opacity="0.6"/>
<path d="M4.82755 682.392H7.90903V683.494H-0.0776539V682.392H3.48596V670.713L0.0900455 672.728L-0.496902 671.793L3.69558 669.216H4.82755V682.392Z" fill="url(#paint31_linear_122_130)" fill-opacity="0.6"/>
<path d="M43.7577 516.135H46.8392V517.236H38.8525V516.135H42.4162V504.455L39.0202 506.471L38.4333 505.536L42.6258 502.959H43.7577V516.135Z" fill="url(#paint32_linear_122_130)" fill-opacity="0.6"/>
<path d="M42.5 526.502C43.9953 526.502 45.1273 527.133 45.8959 528.393C46.6785 529.64 47.0698 531.455 47.0698 533.838C47.0698 536.221 46.6785 538.043 45.8959 539.304C45.1273 540.565 43.9953 541.195 42.5 541.195C41.0187 541.195 39.8867 540.565 39.1041 539.304C38.3215 538.043 37.9302 536.221 37.9302 533.838C37.9302 531.469 38.3215 529.654 39.1041 528.393C39.8867 527.133 41.0187 526.502 42.5 526.502ZM39.4185 533.838C39.4185 535.529 39.5723 536.852 39.8797 537.808L44.5334 528.601C44.0442 527.95 43.3664 527.624 42.5 527.624C41.5357 527.624 40.7811 528.137 40.2361 529.162C39.691 530.174 39.4185 531.732 39.4185 533.838ZM42.5 540.052C43.4782 540.052 44.2399 539.546 44.7849 538.535C45.3299 537.51 45.6024 535.944 45.6024 533.838C45.6024 532.051 45.4277 530.665 45.0784 529.682L40.4247 538.971C40.9278 539.692 41.6196 540.052 42.5 540.052Z" fill="url(#paint33_linear_122_130)" fill-opacity="0.6"/>
<path d="M43.7577 563.637H46.8392V564.738H38.8525V563.637H42.4162V551.957L39.0202 553.973L38.4333 553.038L42.6258 550.461H43.7577V563.637Z" fill="url(#paint34_linear_122_130)" fill-opacity="0.6"/>
<path d="M43.7577 587.388H46.8392V588.489H38.8525V587.388H42.4162V575.708L39.0202 577.724L38.4333 576.789L42.6258 574.212H43.7577V587.388Z" fill="url(#paint35_linear_122_130)" fill-opacity="0.6"/>
<path d="M42.5 597.755C43.9953 597.755 45.1273 598.386 45.8959 599.646C46.6785 600.893 47.0698 602.708 47.0698 605.091C47.0698 607.474 46.6785 609.296 45.8959 610.557C45.1273 611.818 43.9953 612.448 42.5 612.448C41.0187 612.448 39.8867 611.818 39.1041 610.557C38.3215 609.296 37.9302 607.474 37.9302 605.091C37.9302 602.722 38.3215 600.907 39.1041 599.646C39.8867 598.386 41.0187 597.755 42.5 597.755ZM39.4185 605.091C39.4185 606.782 39.5723 608.105 39.8797 609.061L44.5334 599.854C44.0442 599.203 43.3664 598.878 42.5 598.878C41.5357 598.878 40.7811 599.39 40.2361 600.415C39.691 601.427 39.4185 602.985 39.4185 605.091ZM42.5 611.305C43.4782 611.305 44.2399 610.8 44.7849 609.788C45.3299 608.763 45.6024 607.197 45.6024 605.091C45.6024 603.304 45.4277 601.919 45.0784 600.935L40.4247 610.225C40.9278 610.945 41.6196 611.305 42.5 611.305Z" fill="url(#paint36_linear_122_130)" fill-opacity="0.6"/>
<path d="M43.7577 634.89H46.8392V635.992H38.8525V634.89H42.4162V623.21L39.0202 625.226L38.4333 624.291L42.6258 621.714H43.7577V634.89Z" fill="url(#paint37_linear_122_130)" fill-opacity="0.6"/>
<path d="M43.7577 658.641H46.8392V659.743H38.8525V658.641H42.4162V646.962L39.0202 648.977L38.4333 648.042L42.6258 645.465H43.7577V658.641Z" fill="url(#paint38_linear_122_130)" fill-opacity="0.6"/>
<path d="M42.5 669.008C43.9953 669.008 45.1273 669.639 45.8959 670.9C46.6785 672.147 47.0698 673.962 47.0698 676.345C47.0698 678.728 46.6785 680.549 45.8959 681.81C45.1273 683.071 43.9953 683.701 42.5 683.701C41.0187 683.701 39.8867 683.071 39.1041 681.81C38.3215 680.549 37.9302 678.728 37.9302 676.345C37.9302 673.975 38.3215 672.16 39.1041 670.9C39.8867 669.639 41.0187 669.008 42.5 669.008ZM39.4185 676.345C39.4185 678.035 39.5723 679.358 39.8797 680.314L44.5334 671.107C44.0442 670.456 43.3664 670.131 42.5 670.131C41.5357 670.131 40.7811 670.643 40.2361 671.669C39.691 672.68 39.4185 674.239 39.4185 676.345ZM42.5 682.558C43.4782 682.558 44.2399 682.053 44.7849 681.041C45.3299 680.016 45.6024 678.451 45.6024 676.345C45.6024 674.557 45.4277 673.172 45.0784 672.188L40.4247 681.478C40.9278 682.198 41.6196 682.558 42.5 682.558Z" fill="url(#paint39_linear_122_130)" fill-opacity="0.6"/>
<path d="M43.7577 706.143H46.8392V707.245H38.8525V706.143H42.4162V694.464L39.0202 696.48L38.4333 695.544L42.6258 692.967H43.7577V706.143Z" fill="url(#paint40_linear_122_130)" fill-opacity="0.6"/>
<path d="M42.5 716.511C43.9953 716.511 45.1273 717.141 45.8959 718.402C46.6785 719.649 47.0698 721.464 47.0698 723.847C47.0698 726.23 46.6785 728.052 45.8959 729.312C45.1273 730.573 43.9953 731.204 42.5 731.204C41.0187 731.204 39.8867 730.573 39.1041 729.312C38.3215 728.052 37.9302 726.23 37.9302 723.847C37.9302 721.478 38.3215 719.663 39.1041 718.402C39.8867 717.141 41.0187 716.511 42.5 716.511ZM39.4185 723.847C39.4185 725.537 39.5723 726.86 39.8797 727.816L44.5334 718.61C44.0442 717.958 43.3664 717.633 42.5 717.633C41.5357 717.633 40.7811 718.145 40.2361 719.171C39.691 720.182 39.4185 721.741 39.4185 723.847ZM42.5 730.061C43.4782 730.061 44.2399 729.555 44.7849 728.543C45.3299 727.518 45.6024 725.953 45.6024 723.847C45.6024 722.059 45.4277 720.674 45.0784 719.69L40.4247 728.98C40.9278 729.7 41.6196 730.061 42.5 730.061Z" fill="url(#paint41_linear_122_130)" fill-opacity="0.6"/>
<path d="M81.4302 502.751C82.9255 502.751 84.0575 503.381 84.8261 504.642C85.6087 505.889 86 507.704 86 510.087C86 512.47 85.6087 514.292 84.8261 515.553C84.0575 516.814 82.9255 517.444 81.4302 517.444C79.9489 517.444 78.8169 516.814 78.0343 515.553C77.2517 514.292 76.8604 512.47 76.8604 510.087C76.8604 507.718 77.2517 505.903 78.0343 504.642C78.8169 503.381 79.9489 502.751 81.4302 502.751ZM78.3487 510.087C78.3487 511.777 78.5024 513.101 78.8099 514.057L83.4636 504.85C82.9744 504.199 82.2966 503.873 81.4302 503.873C80.4659 503.873 79.7113 504.386 79.1663 505.411C78.6212 506.423 78.3487 507.981 78.3487 510.087ZM81.4302 516.301C82.4084 516.301 83.1701 515.795 83.7151 514.784C84.2601 513.759 84.5326 512.193 84.5326 510.087C84.5326 508.3 84.3579 506.914 84.0086 505.931L79.3549 515.22C79.858 515.941 80.5498 516.301 81.4302 516.301Z" fill="url(#paint42_linear_122_130)" fill-opacity="0.6"/>
<path d="M82.6879 539.886H85.7694V540.987H77.7827V539.886H81.3463V528.206L77.9504 530.222L77.3635 529.287L81.556 526.71H82.6879V539.886Z" fill="url(#paint43_linear_122_130)" fill-opacity="0.6"/>
<path d="M82.6879 563.637H85.7694V564.738H77.7827V563.637H81.3463V551.957L77.9504 553.973L77.3635 553.038L81.556 550.461H82.6879V563.637Z" fill="url(#paint44_linear_122_130)" fill-opacity="0.6"/>
<path d="M81.4302 574.004C82.9255 574.004 84.0575 574.635 84.8261 575.895C85.6087 577.142 86 578.957 86 581.34C86 583.723 85.6087 585.545 84.8261 586.806C84.0575 588.067 82.9255 588.697 81.4302 588.697C79.9489 588.697 78.8169 588.067 78.0343 586.806C77.2517 585.545 76.8604 583.723 76.8604 581.34C76.8604 578.971 77.2517 577.156 78.0343 575.895C78.8169 574.635 79.9489 574.004 81.4302 574.004ZM78.3487 581.34C78.3487 583.031 78.5024 584.354 78.8099 585.31L83.4636 576.103C82.9744 575.452 82.2966 575.126 81.4302 575.126C80.4659 575.126 79.7113 575.639 79.1663 576.664C78.6212 577.676 78.3487 579.234 78.3487 581.34ZM81.4302 587.554C82.4084 587.554 83.1701 587.049 83.7151 586.037C84.2601 585.012 84.5326 583.446 84.5326 581.34C84.5326 579.553 84.3579 578.168 84.0086 577.184L79.3549 586.474C79.858 587.194 80.5498 587.554 81.4302 587.554Z" fill="url(#paint45_linear_122_130)" fill-opacity="0.6"/>
<path d="M81.4302 597.755C82.9255 597.755 84.0575 598.386 84.8261 599.646C85.6087 600.893 86 602.708 86 605.091C86 607.474 85.6087 609.296 84.8261 610.557C84.0575 611.818 82.9255 612.448 81.4302 612.448C79.9489 612.448 78.8169 611.818 78.0343 610.557C77.2517 609.296 76.8604 607.474 76.8604 605.091C76.8604 602.722 77.2517 600.907 78.0343 599.646C78.8169 598.386 79.9489 597.755 81.4302 597.755ZM78.3487 605.091C78.3487 606.782 78.5024 608.105 78.8099 609.061L83.4636 599.854C82.9744 599.203 82.2966 598.878 81.4302 598.878C80.4659 598.878 79.7113 599.39 79.1663 600.415C78.6212 601.427 78.3487 602.985 78.3487 605.091ZM81.4302 611.305C82.4084 611.305 83.1701 610.8 83.7151 609.788C84.2601 608.763 84.5326 607.197 84.5326 605.091C84.5326 603.304 84.3579 601.919 84.0086 600.935L79.3549 610.225C79.858 610.945 80.5498 611.305 81.4302 611.305Z" fill="url(#paint46_linear_122_130)" fill-opacity="0.6"/>
<g opacity="0.6">
<path d="M909.93 179C911.356 179 912.436 179.605 913.17 180.815C913.916 182.011 914.29 183.753 914.29 186.04C914.29 188.327 913.916 190.075 913.17 191.285C912.436 192.495 911.356 193.1 909.93 193.1C908.517 193.1 907.437 192.495 906.69 191.285C905.943 190.075 905.57 188.327 905.57 186.04C905.57 183.767 905.943 182.025 906.69 180.815C907.437 179.605 908.517 179 909.93 179ZM906.99 186.04C906.99 187.662 907.137 188.932 907.43 189.849L911.87 181.014C911.403 180.389 910.756 180.077 909.93 180.077C909.01 180.077 908.29 180.569 907.77 181.553C907.25 182.523 906.99 184.019 906.99 186.04ZM909.93 192.003C910.863 192.003 911.59 191.518 912.11 190.547C912.63 189.564 912.89 188.061 912.89 186.04C912.89 184.325 912.723 182.995 912.39 182.051L907.95 190.966C908.43 191.658 909.09 192.003 909.93 192.003Z" fill="url(#paint47_linear_122_130)"/>
<path d="M911.13 214.637H914.07V215.694H906.45V214.637H909.85V203.428L906.61 205.363L906.05 204.465L910.05 201.992H911.13V214.637Z" fill="url(#paint48_linear_122_130)"/>
<path d="M909.93 224.586C911.356 224.586 912.436 225.191 913.17 226.4C913.916 227.597 914.29 229.339 914.29 231.626C914.29 233.913 913.916 235.661 913.17 236.871C912.436 238.081 911.356 238.686 909.93 238.686C908.517 238.686 907.437 238.081 906.69 236.871C905.943 235.661 905.57 233.913 905.57 231.626C905.57 229.352 905.943 227.61 906.69 226.4C907.437 225.191 908.517 224.586 909.93 224.586ZM906.99 231.626C906.99 233.248 907.137 234.518 907.43 235.435L911.87 226.6C911.403 225.975 910.756 225.663 909.93 225.663C909.01 225.663 908.29 226.155 907.77 227.138C907.25 228.109 906.99 229.605 906.99 231.626ZM909.93 237.589C910.863 237.589 911.59 237.104 912.11 236.133C912.63 235.149 912.89 233.647 912.89 231.626C912.89 229.911 912.723 228.581 912.39 227.637L907.95 236.552C908.43 237.243 909.09 237.589 909.93 237.589Z" fill="url(#paint49_linear_122_130)"/>
<path d="M911.13 260.222H914.07V261.279H906.45V260.222H909.85V249.014L906.61 250.948L906.05 250.051L910.05 247.578H911.13V260.222Z" fill="url(#paint50_linear_122_130)"/>
<path d="M911.13 283.015H914.07V284.072H906.45V283.015H909.85V271.807L906.61 273.741L906.05 272.844L910.05 270.371H911.13V283.015Z" fill="url(#paint51_linear_122_130)"/>
<path d="M909.93 292.964C911.356 292.964 912.436 293.569 913.17 294.779C913.916 295.976 914.29 297.717 914.29 300.004C914.29 302.291 913.916 304.039 913.17 305.249C912.436 306.459 911.356 307.064 909.93 307.064C908.517 307.064 907.437 306.459 906.69 305.249C905.943 304.039 905.57 302.291 905.57 300.004C905.57 297.731 905.943 295.989 906.69 294.779C907.437 293.569 908.517 292.964 909.93 292.964ZM906.99 300.004C906.99 301.626 907.137 302.896 907.43 303.813L911.87 294.978C911.403 294.353 910.756 294.041 909.93 294.041C909.01 294.041 908.29 294.533 907.77 295.517C907.25 296.487 906.99 297.983 906.99 300.004ZM909.93 305.967C910.863 305.967 911.59 305.482 912.11 304.511C912.63 303.528 912.89 302.025 912.89 300.004C912.89 298.289 912.723 296.959 912.39 296.015L907.95 304.93C908.43 305.622 909.09 305.967 909.93 305.967Z" fill="url(#paint52_linear_122_130)"/>
<path d="M911.13 328.601H914.07V329.658H906.45V328.601H909.85V317.392L906.61 319.327L906.05 318.429L910.05 315.956H911.13V328.601Z" fill="url(#paint53_linear_122_130)"/>
<path d="M909.93 338.55C911.356 338.55 912.436 339.155 913.17 340.365C913.916 341.561 914.29 343.303 914.29 345.59C914.29 347.877 913.916 349.625 913.17 350.835C912.436 352.045 911.356 352.65 909.93 352.65C908.517 352.65 907.437 352.045 906.69 350.835C905.943 349.625 905.57 347.877 905.57 345.59C905.57 343.316 905.943 341.574 906.69 340.365C907.437 339.155 908.517 338.55 909.93 338.55ZM906.99 345.59C906.99 347.212 907.137 348.482 907.43 349.399L911.87 340.564C911.403 339.939 910.756 339.627 909.93 339.627C909.01 339.627 908.29 340.119 907.77 341.102C907.25 342.073 906.99 343.569 906.99 345.59ZM909.93 351.553C910.863 351.553 911.59 351.068 912.11 350.097C912.63 349.113 912.89 347.611 912.89 345.59C912.89 343.875 912.723 342.545 912.39 341.601L907.95 350.516C908.43 351.207 909.09 351.553 909.93 351.553Z" fill="url(#paint54_linear_122_130)"/>
<path d="M909.93 361.342C911.356 361.342 912.436 361.947 913.17 363.157C913.916 364.354 914.29 366.096 914.29 368.383C914.29 370.669 913.916 372.418 913.17 373.628C912.436 374.838 911.356 375.443 909.93 375.443C908.517 375.443 907.437 374.838 906.69 373.628C905.943 372.418 905.57 370.669 905.57 368.383C905.57 366.109 905.943 364.367 906.69 363.157C907.437 361.947 908.517 361.342 909.93 361.342ZM906.99 368.383C906.99 370.005 907.137 371.274 907.43 372.192L911.87 363.357C911.403 362.732 910.756 362.419 909.93 362.419C909.01 362.419 908.29 362.911 907.77 363.895C907.25 364.866 906.99 366.362 906.99 368.383ZM909.93 374.346C910.863 374.346 911.59 373.86 912.11 372.89C912.63 371.906 912.89 370.404 912.89 368.383C912.89 366.667 912.723 365.338 912.39 364.394L907.95 373.309C908.43 374 909.09 374.346 909.93 374.346Z" fill="url(#paint55_linear_122_130)"/>
<path d="M911.13 396.979H914.07V398.036H906.45V396.979H909.85V385.771L906.61 387.705L906.05 386.808L910.05 384.335H911.13V396.979Z" fill="url(#paint56_linear_122_130)"/>
<path d="M909.93 406.928C911.356 406.928 912.436 407.533 913.17 408.743C913.916 409.94 914.29 411.681 914.29 413.968C914.29 416.255 913.916 418.003 913.17 419.213C912.436 420.423 911.356 421.028 909.93 421.028C908.517 421.028 907.437 420.423 906.69 419.213C905.943 418.003 905.57 416.255 905.57 413.968C905.57 411.695 905.943 409.953 906.69 408.743C907.437 407.533 908.517 406.928 909.93 406.928ZM906.99 413.968C906.99 415.59 907.137 416.86 907.43 417.777L911.87 408.942C911.403 408.317 910.756 408.005 909.93 408.005C909.01 408.005 908.29 408.497 907.77 409.481C907.25 410.451 906.99 411.947 906.99 413.968ZM909.93 419.931C910.863 419.931 911.59 419.446 912.11 418.475C912.63 417.492 912.89 415.989 912.89 413.968C912.89 412.253 912.723 410.923 912.39 409.979L907.95 418.894C908.43 419.586 909.09 419.931 909.93 419.931Z" fill="url(#paint57_linear_122_130)"/>
<path d="M911.13 442.565H914.07V443.622H906.45V442.565H909.85V431.356L906.61 433.291L906.05 432.393L910.05 429.92H911.13V442.565Z" fill="url(#paint58_linear_122_130)"/>
<path d="M911.13 465.357H914.07V466.414H906.45V465.357H909.85V454.149L906.61 456.084L906.05 455.186L910.05 452.713H911.13V465.357Z" fill="url(#paint59_linear_122_130)"/>
<path d="M947.07 224.586C948.497 224.586 949.577 225.191 950.31 226.4C951.057 227.597 951.43 229.339 951.43 231.626C951.43 233.913 951.057 235.661 950.31 236.871C949.577 238.081 948.497 238.686 947.07 238.686C945.657 238.686 944.577 238.081 943.83 236.871C943.084 235.661 942.71 233.913 942.71 231.626C942.71 229.352 943.084 227.61 943.83 226.4C944.577 225.191 945.657 224.586 947.07 224.586ZM944.13 231.626C944.13 233.248 944.277 234.518 944.57 235.435L949.01 226.6C948.543 225.975 947.897 225.663 947.07 225.663C946.15 225.663 945.43 226.155 944.91 227.138C944.39 228.109 944.13 229.605 944.13 231.626ZM947.07 237.589C948.003 237.589 948.73 237.104 949.25 236.133C949.77 235.149 950.03 233.647 950.03 231.626C950.03 229.911 949.863 228.581 949.53 227.637L945.09 236.552C945.57 237.243 946.23 237.589 947.07 237.589Z" fill="url(#paint60_linear_122_130)"/>
<path d="M948.27 260.222H951.21V261.279H943.59V260.222H946.99V249.014L943.75 250.948L943.19 250.051L947.19 247.578H948.27V260.222Z" fill="url(#paint61_linear_122_130)"/>
<path d="M947.07 270.171C948.497 270.171 949.577 270.776 950.31 271.986C951.057 273.183 951.43 274.924 951.43 277.211C951.43 279.498 951.057 281.247 950.31 282.457C949.577 283.666 948.497 284.271 947.07 284.271C945.657 284.271 944.577 283.666 943.83 282.457C943.084 281.247 942.71 279.498 942.71 277.211C942.71 274.938 943.084 273.196 943.83 271.986C944.577 270.776 945.657 270.171 947.07 270.171ZM944.13 277.211C944.13 278.833 944.277 280.103 944.57 281.021L949.01 272.186C948.543 271.561 947.897 271.248 947.07 271.248C946.15 271.248 945.43 271.74 944.91 272.724C944.39 273.695 944.13 275.19 944.13 277.211ZM947.07 283.174C948.003 283.174 948.73 282.689 949.25 281.719C949.77 280.735 950.03 279.232 950.03 277.211C950.03 275.496 949.863 274.167 949.53 273.223L945.09 282.137C945.57 282.829 946.23 283.174 947.07 283.174Z" fill="url(#paint62_linear_122_130)"/>
<path d="M947.07 292.964C948.497 292.964 949.577 293.569 950.31 294.779C951.057 295.976 951.43 297.717 951.43 300.004C951.43 302.291 951.057 304.039 950.31 305.249C949.577 306.459 948.497 307.064 947.07 307.064C945.657 307.064 944.577 306.459 943.83 305.249C943.084 304.039 942.71 302.291 942.71 300.004C942.71 297.731 943.084 295.989 943.83 294.779C944.577 293.569 945.657 292.964 947.07 292.964ZM944.13 300.004C944.13 301.626 944.277 302.896 944.57 303.813L949.01 294.978C948.543 294.353 947.897 294.041 947.07 294.041C946.15 294.041 945.43 294.533 944.91 295.517C944.39 296.487 944.13 297.983 944.13 300.004ZM947.07 305.967C948.003 305.967 948.73 305.482 949.25 304.511C949.77 303.528 950.03 302.025 950.03 300.004C950.03 298.289 949.863 296.959 949.53 296.015L945.09 304.93C945.57 305.622 946.23 305.967 947.07 305.967Z" fill="url(#paint63_linear_122_130)"/>
<path d="M948.27 328.601H951.21V329.658H943.59V328.601H946.99V317.392L943.75 319.327L943.19 318.429L947.19 315.956H948.27V328.601Z" fill="url(#paint64_linear_122_130)"/>
<path d="M947.07 338.55C948.497 338.55 949.577 339.155 950.31 340.365C951.057 341.561 951.43 343.303 951.43 345.59C951.43 347.877 951.057 349.625 950.31 350.835C949.577 352.045 948.497 352.65 947.07 352.65C945.657 352.65 944.577 352.045 943.83 350.835C943.084 349.625 942.71 347.877 942.71 345.59C942.71 343.316 943.084 341.574 943.83 340.365C944.577 339.155 945.657 338.55 947.07 338.55ZM944.13 345.59C944.13 347.212 944.277 348.482 944.57 349.399L949.01 340.564C948.543 339.939 947.897 339.627 947.07 339.627C946.15 339.627 945.43 340.119 944.91 341.102C944.39 342.073 944.13 343.569 944.13 345.59ZM947.07 351.553C948.003 351.553 948.73 351.068 949.25 350.097C949.77 349.113 950.03 347.611 950.03 345.59C950.03 343.875 949.863 342.545 949.53 341.601L945.09 350.516C945.57 351.207 946.23 351.553 947.07 351.553Z" fill="url(#paint65_linear_122_130)"/>
<path d="M948.27 374.186H951.21V375.243H943.59V374.186H946.99V362.978L943.75 364.912L943.19 364.015L947.19 361.542H948.27V374.186Z" fill="url(#paint66_linear_122_130)"/>
<path d="M947.07 384.135C948.497 384.135 949.577 384.74 950.31 385.95C951.057 387.147 951.43 388.888 951.43 391.175C951.43 393.462 951.057 395.211 950.31 396.421C949.577 397.63 948.497 398.235 947.07 398.235C945.657 398.235 944.577 397.63 943.83 396.421C943.084 395.211 942.71 393.462 942.71 391.175C942.71 388.902 943.084 387.16 943.83 385.95C944.577 384.74 945.657 384.135 947.07 384.135ZM944.13 391.175C944.13 392.797 944.277 394.067 944.57 394.985L949.01 386.15C948.543 385.525 947.897 385.212 947.07 385.212C946.15 385.212 945.43 385.704 944.91 386.688C944.39 387.659 944.13 389.154 944.13 391.175ZM947.07 397.139C948.003 397.139 948.73 396.653 949.25 395.683C949.77 394.699 950.03 393.196 950.03 391.175C950.03 389.46 949.863 388.131 949.53 387.187L945.09 396.101C945.57 396.793 946.23 397.139 947.07 397.139Z" fill="url(#paint67_linear_122_130)"/>
<path d="M947.07 406.928C948.497 406.928 949.577 407.533 950.31 408.743C951.057 409.94 951.43 411.681 951.43 413.968C951.43 416.255 951.057 418.003 950.31 419.213C949.577 420.423 948.497 421.028 947.07 421.028C945.657 421.028 944.577 420.423 943.83 419.213C943.084 418.003 942.71 416.255 942.71 413.968C942.71 411.695 943.084 409.953 943.83 408.743C944.577 407.533 945.657 406.928 947.07 406.928ZM944.13 413.968C944.13 415.59 944.277 416.86 944.57 417.777L949.01 408.942C948.543 408.317 947.897 408.005 947.07 408.005C946.15 408.005 945.43 408.497 944.91 409.481C944.39 410.451 944.13 411.947 944.13 413.968ZM947.07 419.931C948.003 419.931 948.73 419.446 949.25 418.475C949.77 417.492 950.03 415.989 950.03 413.968C950.03 412.253 949.863 410.923 949.53 409.979L945.09 418.894C945.57 419.586 946.23 419.931 947.07 419.931Z" fill="url(#paint68_linear_122_130)"/>
<path d="M948.27 442.565H951.21V443.622H943.59V442.565H946.99V431.356L943.75 433.291L943.19 432.393L947.19 429.92H948.27V442.565Z" fill="url(#paint69_linear_122_130)"/>
<path d="M947.07 452.514C948.497 452.514 949.577 453.119 950.31 454.329C951.057 455.525 951.43 457.267 951.43 459.554C951.43 461.841 951.057 463.589 950.31 464.799C949.577 466.009 948.497 466.614 947.07 466.614C945.657 466.614 944.577 466.009 943.83 464.799C943.084 463.589 942.71 461.841 942.71 459.554C942.71 457.28 943.084 455.538 943.83 454.329C944.577 453.119 945.657 452.514 947.07 452.514ZM944.13 459.554C944.13 461.176 944.277 462.446 944.57 463.363L949.01 454.528C948.543 453.903 947.897 453.591 947.07 453.591C946.15 453.591 945.43 454.083 944.91 455.066C944.39 456.037 944.13 457.533 944.13 459.554ZM947.07 465.517C948.003 465.517 948.73 465.032 949.25 464.061C949.77 463.077 950.03 461.575 950.03 459.554C950.03 457.839 949.863 456.509 949.53 455.565L945.09 464.48C945.57 465.171 946.23 465.517 947.07 465.517Z" fill="url(#paint70_linear_122_130)"/>
<path d="M948.27 488.15H951.21V489.207H943.59V488.15H946.99V476.942L943.75 478.876L943.19 477.979L947.19 475.506H948.27V488.15Z" fill="url(#paint71_linear_122_130)"/>
<path d="M948.27 510.943H951.21V512H943.59V510.943H946.99V499.735L943.75 501.669L943.19 500.772L947.19 498.299H948.27V510.943Z" fill="url(#paint72_linear_122_130)"/>
<path d="M891.36 247.378C892.786 247.378 893.866 247.983 894.599 249.193C895.346 250.39 895.719 252.132 895.719 254.419C895.719 256.705 895.346 258.454 894.599 259.664C893.866 260.874 892.786 261.479 891.36 261.479C889.946 261.479 888.867 260.874 888.12 259.664C887.373 258.454 887 256.705 887 254.419C887 252.145 887.373 250.403 888.12 249.193C888.867 247.983 889.946 247.378 891.36 247.378ZM888.42 254.419C888.42 256.041 888.567 257.31 888.86 258.228L893.3 249.393C892.833 248.768 892.186 248.455 891.36 248.455C890.44 248.455 889.72 248.947 889.2 249.931C888.68 250.902 888.42 252.398 888.42 254.419ZM891.36 260.382C892.293 260.382 893.02 259.896 893.54 258.926C894.06 257.942 894.319 256.44 894.319 254.419C894.319 252.703 894.153 251.374 893.82 250.43L889.38 259.345C889.86 260.036 890.52 260.382 891.36 260.382Z" fill="url(#paint73_linear_122_130)"/>
<path d="M891.36 270.171C892.786 270.171 893.866 270.776 894.599 271.986C895.346 273.183 895.719 274.924 895.719 277.211C895.719 279.498 895.346 281.247 894.599 282.457C893.866 283.666 892.786 284.271 891.36 284.271C889.946 284.271 888.867 283.666 888.12 282.457C887.373 281.247 887 279.498 887 277.211C887 274.938 887.373 273.196 888.12 271.986C888.867 270.776 889.946 270.171 891.36 270.171ZM888.42 277.211C888.42 278.833 888.567 280.103 888.86 281.021L893.3 272.186C892.833 271.561 892.186 271.248 891.36 271.248C890.44 271.248 889.72 271.74 889.2 272.724C888.68 273.695 888.42 275.19 888.42 277.211ZM891.36 283.174C892.293 283.174 893.02 282.689 893.54 281.719C894.06 280.735 894.319 279.232 894.319 277.211C894.319 275.496 894.153 274.167 893.82 273.223L889.38 282.137C889.86 282.829 890.52 283.174 891.36 283.174Z" fill="url(#paint74_linear_122_130)"/>
<path d="M892.56 305.808H895.499V306.865H887.88V305.808H891.28V294.599L888.04 296.534L887.48 295.636L891.48 293.163H892.56V305.808Z" fill="url(#paint75_linear_122_130)"/>
<path d="M891.36 315.757C892.786 315.757 893.866 316.362 894.599 317.572C895.346 318.768 895.719 320.51 895.719 322.797C895.719 325.084 895.346 326.832 894.599 328.042C893.866 329.252 892.786 329.857 891.36 329.857C889.946 329.857 888.867 329.252 888.12 328.042C887.373 326.832 887 325.084 887 322.797C887 320.523 887.373 318.782 888.12 317.572C888.867 316.362 889.946 315.757 891.36 315.757ZM888.42 322.797C888.42 324.419 888.567 325.689 888.86 326.606L893.3 317.771C892.833 317.146 892.186 316.834 891.36 316.834C890.44 316.834 889.72 317.326 889.2 318.31C888.68 319.28 888.42 320.776 888.42 322.797ZM891.36 328.76C892.293 328.76 893.02 328.275 893.54 327.304C894.06 326.32 894.319 324.818 894.319 322.797C894.319 321.082 894.153 319.752 893.82 318.808L889.38 327.723C889.86 328.414 890.52 328.76 891.36 328.76Z" fill="url(#paint76_linear_122_130)"/>
<path d="M892.56 351.393H895.499V352.45H887.88V351.393H891.28V340.185L888.04 342.12L887.48 341.222L891.48 338.749H892.56V351.393Z" fill="url(#paint77_linear_122_130)"/>
<path d="M892.56 374.186H895.499V375.243H887.88V374.186H891.28V362.978L888.04 364.912L887.48 364.015L891.48 361.542H892.56V374.186Z" fill="url(#paint78_linear_122_130)"/>
<path d="M929.7 214.637H932.64V215.694H925.02V214.637H928.42V203.428L925.18 205.363L924.62 204.465L928.62 201.992H929.7V214.637Z" fill="url(#paint79_linear_122_130)"/>
<path d="M928.5 224.586C929.927 224.586 931.006 225.191 931.74 226.4C932.486 227.597 932.86 229.339 932.86 231.626C932.86 233.913 932.486 235.661 931.74 236.871C931.006 238.081 929.927 238.686 928.5 238.686C927.087 238.686 926.007 238.081 925.26 236.871C924.514 235.661 924.14 233.913 924.14 231.626C924.14 229.352 924.514 227.61 925.26 226.4C926.007 225.191 927.087 224.586 928.5 224.586ZM925.56 231.626C925.56 233.248 925.707 234.518 926 235.435L930.44 226.6C929.973 225.975 929.327 225.663 928.5 225.663C927.58 225.663 926.86 226.155 926.34 227.138C925.82 228.109 925.56 229.605 925.56 231.626ZM928.5 237.589C929.433 237.589 930.16 237.104 930.68 236.133C931.2 235.149 931.46 233.647 931.46 231.626C931.46 229.911 931.293 228.581 930.96 227.637L926.52 236.552C927 237.243 927.66 237.589 928.5 237.589Z" fill="url(#paint80_linear_122_130)"/>
<path d="M929.7 260.222H932.64V261.279H925.02V260.222H928.42V249.014L925.18 250.948L924.62 250.051L928.62 247.578H929.7V260.222Z" fill="url(#paint81_linear_122_130)"/>
<path d="M929.7 283.015H932.64V284.072H925.02V283.015H928.42V271.807L925.18 273.741L924.62 272.844L928.62 270.371H929.7V283.015Z" fill="url(#paint82_linear_122_130)"/>
<path d="M928.5 292.964C929.927 292.964 931.006 293.569 931.74 294.779C932.486 295.976 932.86 297.717 932.86 300.004C932.86 302.291 932.486 304.039 931.74 305.249C931.006 306.459 929.927 307.064 928.5 307.064C927.087 307.064 926.007 306.459 925.26 305.249C924.514 304.039 924.14 302.291 924.14 300.004C924.14 297.731 924.514 295.989 925.26 294.779C926.007 293.569 927.087 292.964 928.5 292.964ZM925.56 300.004C925.56 301.626 925.707 302.896 926 303.813L930.44 294.978C929.973 294.353 929.327 294.041 928.5 294.041C927.58 294.041 926.86 294.533 926.34 295.517C925.82 296.487 925.56 297.983 925.56 300.004ZM928.5 305.967C929.433 305.967 930.16 305.482 930.68 304.511C931.2 303.528 931.46 302.025 931.46 300.004C931.46 298.289 931.293 296.959 930.96 296.015L926.52 304.93C927 305.622 927.66 305.967 928.5 305.967Z" fill="url(#paint83_linear_122_130)"/>
<path d="M929.7 328.601H932.64V329.658H925.02V328.601H928.42V317.392L925.18 319.327L924.62 318.429L928.62 315.956H929.7V328.601Z" fill="url(#paint84_linear_122_130)"/>
<path d="M929.7 351.393H932.64V352.45H925.02V351.393H928.42V340.185L925.18 342.12L924.62 341.222L928.62 338.749H929.7V351.393Z" fill="url(#paint85_linear_122_130)"/>
<path d="M928.5 361.342C929.927 361.342 931.006 361.947 931.74 363.157C932.486 364.354 932.86 366.096 932.86 368.383C932.86 370.669 932.486 372.418 931.74 373.628C931.006 374.838 929.927 375.443 928.5 375.443C927.087 375.443 926.007 374.838 925.26 373.628C924.514 372.418 924.14 370.669 924.14 368.383C924.14 366.109 924.514 364.367 925.26 363.157C926.007 361.947 927.087 361.342 928.5 361.342ZM925.56 368.383C925.56 370.005 925.707 371.274 926 372.192L930.44 363.357C929.973 362.732 929.327 362.419 928.5 362.419C927.58 362.419 926.86 362.911 926.34 363.895C925.82 364.866 925.56 366.362 925.56 368.383ZM928.5 374.346C929.433 374.346 930.16 373.86 930.68 372.89C931.2 371.906 931.46 370.404 931.46 368.383C931.46 366.667 931.293 365.338 930.96 364.394L926.52 373.309C927 374 927.66 374.346 928.5 374.346Z" fill="url(#paint86_linear_122_130)"/>
<path d="M929.7 396.979H932.64V398.036H925.02V396.979H928.42V385.771L925.18 387.705L924.62 386.808L928.62 384.335H929.7V396.979Z" fill="url(#paint87_linear_122_130)"/>
<path d="M928.5 406.928C929.927 406.928 931.006 407.533 931.74 408.743C932.486 409.94 932.86 411.681 932.86 413.968C932.86 416.255 932.486 418.003 931.74 419.213C931.006 420.423 929.927 421.028 928.5 421.028C927.087 421.028 926.007 420.423 925.26 419.213C924.514 418.003 924.14 416.255 924.14 413.968C924.14 411.695 924.514 409.953 925.26 408.743C926.007 407.533 927.087 406.928 928.5 406.928ZM925.56 413.968C925.56 415.59 925.707 416.86 926 417.777L930.44 408.942C929.973 408.317 929.327 408.005 928.5 408.005C927.58 408.005 926.86 408.497 926.34 409.481C925.82 410.451 925.56 411.947 925.56 413.968ZM928.5 419.931C929.433 419.931 930.16 419.446 930.68 418.475C931.2 417.492 931.46 415.989 931.46 413.968C931.46 412.253 931.293 410.923 930.96 409.979L926.52 418.894C927 419.586 927.66 419.931 928.5 419.931Z" fill="url(#paint88_linear_122_130)"/>
<path d="M965.64 201.793C967.067 201.793 968.147 202.398 968.88 203.608C969.627 204.804 970 206.546 970 208.833C970 211.12 969.627 212.868 968.88 214.078C968.147 215.288 967.067 215.893 965.64 215.893C964.227 215.893 963.147 215.288 962.401 214.078C961.654 212.868 961.281 211.12 961.281 208.833C961.281 206.559 961.654 204.818 962.401 203.608C963.147 202.398 964.227 201.793 965.64 201.793ZM962.7 208.833C962.7 210.455 962.847 211.725 963.14 212.642L967.58 203.807C967.114 203.182 966.467 202.87 965.64 202.87C964.72 202.87 964 203.362 963.48 204.346C962.96 205.316 962.7 206.812 962.7 208.833ZM965.64 214.796C966.574 214.796 967.3 214.311 967.82 213.34C968.34 212.356 968.6 210.854 968.6 208.833C968.6 207.118 968.433 205.788 968.1 204.844L963.66 213.759C964.14 214.45 964.8 214.796 965.64 214.796Z" fill="url(#paint89_linear_122_130)"/>
<path d="M966.84 237.429H969.78V238.486H962.161V237.429H965.56V226.221L962.321 228.156L961.761 227.258L965.76 224.785H966.84V237.429Z" fill="url(#paint90_linear_122_130)"/>
<path d="M966.84 260.222H969.78V261.279H962.161V260.222H965.56V249.014L962.321 250.948L961.761 250.051L965.76 247.578H966.84V260.222Z" fill="url(#paint91_linear_122_130)"/>
<path d="M965.64 270.171C967.067 270.171 968.147 270.776 968.88 271.986C969.627 273.183 970 274.924 970 277.211C970 279.498 969.627 281.247 968.88 282.457C968.147 283.666 967.067 284.271 965.64 284.271C964.227 284.271 963.147 283.666 962.401 282.457C961.654 281.247 961.281 279.498 961.281 277.211C961.281 274.938 961.654 273.196 962.401 271.986C963.147 270.776 964.227 270.171 965.64 270.171ZM962.7 277.211C962.7 278.833 962.847 280.103 963.14 281.021L967.58 272.186C967.114 271.561 966.467 271.248 965.64 271.248C964.72 271.248 964 271.74 963.48 272.724C962.96 273.695 962.7 275.19 962.7 277.211ZM965.64 283.174C966.574 283.174 967.3 282.689 967.82 281.719C968.34 280.735 968.6 279.232 968.6 277.211C968.6 275.496 968.433 274.167 968.1 273.223L963.66 282.137C964.14 282.829 964.8 283.174 965.64 283.174Z" fill="url(#paint92_linear_122_130)"/>
<path d="M965.64 292.964C967.067 292.964 968.147 293.569 968.88 294.779C969.627 295.976 970 297.717 970 300.004C970 302.291 969.627 304.039 968.88 305.249C968.147 306.459 967.067 307.064 965.64 307.064C964.227 307.064 963.147 306.459 962.401 305.249C961.654 304.039 961.281 302.291 961.281 300.004C961.281 297.731 961.654 295.989 962.401 294.779C963.147 293.569 964.227 292.964 965.64 292.964ZM962.7 300.004C962.7 301.626 962.847 302.896 963.14 303.813L967.58 294.978C967.114 294.353 966.467 294.041 965.64 294.041C964.72 294.041 964 294.533 963.48 295.517C962.96 296.487 962.7 297.983 962.7 300.004ZM965.64 305.967C966.574 305.967 967.3 305.482 967.82 304.511C968.34 303.528 968.6 302.025 968.6 300.004C968.6 298.289 968.433 296.959 968.1 296.015L963.66 304.93C964.14 305.622 964.8 305.967 965.64 305.967Z" fill="url(#paint93_linear_122_130)"/>
</g>
</g>
<defs>
<filter id="filter0_f_122_130" x="-568.19" y="-507.19" width="2141.38" height="1500.38" filterUnits="userSpaceOnUse" color-interpolation-filters="sRGB">
<feFlood flood-opacity="0" result="BackgroundImageFix"/>
<feBlend mode="normal" in="SourceGraphic" in2="BackgroundImageFix" result="shape"/>
<feGaussianBlur stdDeviation="200.095" result="effect1_foregroundBlur_122_130"/>
</filter>
<linearGradient id="paint0_linear_122_130" x1="42.5" y1="479" x2="42.5" y2="790.381" gradientUnits="userSpaceOnUse">
<stop stop-color="#F7DD43"/>
<stop offset="1" stop-color="#F7DD43" stop-opacity="0"/>
</linearGradient>
<linearGradient id="paint1_linear_122_130" x1="42.5" y1="479" x2="42.5" y2="790.381" gradientUnits="userSpaceOnUse">
<stop stop-color="#F7DD43"/>
<stop offset="1" stop-color="#F7DD43" stop-opacity="0"/>
</linearGradient>
<linearGradient id="paint2_linear_122_130" x1="42.5" y1="479" x2="42.5" y2="790.381" gradientUnits="userSpaceOnUse">
<stop stop-color="#F7DD43"/>
<stop offset="1" stop-color="#F7DD43" stop-opacity="0"/>
</linearGradient>
<linearGradient id="paint3_linear_122_130" x1="42.5" y1="479" x2="42.5" y2="790.381" gradientUnits="userSpaceOnUse">
<stop stop-color="#F7DD43"/>
<stop offset="1" stop-color="#F7DD43" stop-opacity="0"/>
</linearGradient>
<linearGradient id="paint4_linear_122_130" x1="42.5" y1="479" x2="42.5" y2="790.381" gradientUnits="userSpaceOnUse">
<stop stop-color="#F7DD43"/>
<stop offset="1" stop-color="#F7DD43" stop-opacity="0"/>
</linearGradient>
<linearGradient id="paint5_linear_122_130" x1="42.5" y1="479" x2="42.5" y2="790.381" gradientUnits="userSpaceOnUse">
<stop stop-color="#F7DD43"/>
<stop offset="1" stop-color="#F7DD43" stop-opacity="0"/>
</linearGradient>
<linearGradient id="paint6_linear_122_130" x1="42.5" y1="479" x2="42.5" y2="790.381" gradientUnits="userSpaceOnUse">
<stop stop-color="#F7DD43"/>
<stop offset="1" stop-color="#F7DD43" stop-opacity="0"/>
</linearGradient>
<linearGradient id="paint7_linear_122_130" x1="42.5" y1="479" x2="42.5" y2="790.381" gradientUnits="userSpaceOnUse">
<stop stop-color="#F7DD43"/>
<stop offset="1" stop-color="#F7DD43" stop-opacity="0"/>
</linearGradient>
<linearGradient id="paint8_linear_122_130" x1="42.5" y1="479" x2="42.5" y2="790.381" gradientUnits="userSpaceOnUse">
<stop stop-color="#F7DD43"/>
<stop offset="1" stop-color="#F7DD43" stop-opacity="0"/>
</linearGradient>
<linearGradient id="paint9_linear_122_130" x1="42.5" y1="479" x2="42.5" y2="790.381" gradientUnits="userSpaceOnUse">
<stop stop-color="#F7DD43"/>
<stop offset="1" stop-color="#F7DD43" stop-opacity="0"/>
</linearGradient>
<linearGradient id="paint10_linear_122_130" x1="42.5" y1="479" x2="42.5" y2="790.381" gradientUnits="userSpaceOnUse">
<stop stop-color="#F7DD43"/>
<stop offset="1" stop-color="#F7DD43" stop-opacity="0"/>
</linearGradient>
<linearGradient id="paint11_linear_122_130" x1="42.5" y1="479" x2="42.5" y2="790.381" gradientUnits="userSpaceOnUse">
<stop stop-color="#F7DD43"/>
<stop offset="1" stop-color="#F7DD43" stop-opacity="0"/>
</linearGradient>
<linearGradient id="paint12_linear_122_130" x1="42.5" y1="479" x2="42.5" y2="790.381" gradientUnits="userSpaceOnUse">
<stop stop-color="#F7DD43"/>
<stop offset="1" stop-color="#F7DD43" stop-opacity="0"/>
</linearGradient>
<linearGradient id="paint13_linear_122_130" x1="42.5" y1="479" x2="42.5" y2="790.381" gradientUnits="userSpaceOnUse">
<stop stop-color="#F7DD43"/>
<stop offset="1" stop-color="#F7DD43" stop-opacity="0"/>
</linearGradient>
<linearGradient id="paint14_linear_122_130" x1="42.5" y1="479" x2="42.5" y2="790.381" gradientUnits="userSpaceOnUse">
<stop stop-color="#F7DD43"/>
<stop offset="1" stop-color="#F7DD43" stop-opacity="0"/>
</linearGradient>
<linearGradient id="paint15_linear_122_130" x1="42.5" y1="479" x2="42.5" y2="790.381" gradientUnits="userSpaceOnUse">
<stop stop-color="#F7DD43"/>
<stop offset="1" stop-color="#F7DD43" stop-opacity="0"/>
</linearGradient>
<linearGradient id="paint16_linear_122_130" x1="42.5" y1="479" x2="42.5" y2="790.381" gradientUnits="userSpaceOnUse">
<stop stop-color="#F7DD43"/>
<stop offset="1" stop-color="#F7DD43" stop-opacity="0"/>
</linearGradient>
<linearGradient id="paint17_linear_122_130" x1="42.5" y1="479" x2="42.5" y2="790.381" gradientUnits="userSpaceOnUse">
<stop stop-color="#F7DD43"/>
<stop offset="1" stop-color="#F7DD43" stop-opacity="0"/>
</linearGradient>
<linearGradient id="paint18_linear_122_130" x1="42.5" y1="479" x2="42.5" y2="790.381" gradientUnits="userSpaceOnUse">
<stop stop-color="#F7DD43"/>
<stop offset="1" stop-color="#F7DD43" stop-opacity="0"/>
</linearGradient>
<linearGradient id="paint19_linear_122_130" x1="42.5" y1="479" x2="42.5" y2="790.381" gradientUnits="userSpaceOnUse">
<stop stop-color="#F7DD43"/>
<stop offset="1" stop-color="#F7DD43" stop-opacity="0"/>
</linearGradient>
<linearGradient id="paint20_linear_122_130" x1="42.5" y1="479" x2="42.5" y2="790.381" gradientUnits="userSpaceOnUse">
<stop stop-color="#F7DD43"/>
<stop offset="1" stop-color="#F7DD43" stop-opacity="0"/>
</linearGradient>
<linearGradient id="paint21_linear_122_130" x1="42.5" y1="479" x2="42.5" y2="790.381" gradientUnits="userSpaceOnUse">
<stop stop-color="#F7DD43"/>
<stop offset="1" stop-color="#F7DD43" stop-opacity="0"/>
</linearGradient>
<linearGradient id="paint22_linear_122_130" x1="42.5" y1="479" x2="42.5" y2="790.381" gradientUnits="userSpaceOnUse">
<stop stop-color="#F7DD43"/>
<stop offset="1" stop-color="#F7DD43" stop-opacity="0"/>
</linearGradient>
<linearGradient id="paint23_linear_122_130" x1="42.5" y1="479" x2="42.5" y2="790.381" gradientUnits="userSpaceOnUse">
<stop stop-color="#F7DD43"/>
<stop offset="1" stop-color="#F7DD43" stop-opacity="0"/>
</linearGradient>
<linearGradient id="paint24_linear_122_130" x1="42.5" y1="479" x2="42.5" y2="790.381" gradientUnits="userSpaceOnUse">
<stop stop-color="#F7DD43"/>
<stop offset="1" stop-color="#F7DD43" stop-opacity="0"/>
</linearGradient>
<linearGradient id="paint25_linear_122_130" x1="42.5" y1="479" x2="42.5" y2="790.381" gradientUnits="userSpaceOnUse">
<stop stop-color="#F7DD43"/>
<stop offset="1" stop-color="#F7DD43" stop-opacity="0"/>
</linearGradient>
<linearGradient id="paint26_linear_122_130" x1="42.5" y1="479" x2="42.5" y2="790.381" gradientUnits="userSpaceOnUse">
<stop stop-color="#F7DD43"/>
<stop offset="1" stop-color="#F7DD43" stop-opacity="0"/>
</linearGradient>
<linearGradient id="paint27_linear_122_130" x1="42.5" y1="479" x2="42.5" y2="790.381" gradientUnits="userSpaceOnUse">
<stop stop-color="#F7DD43"/>
<stop offset="1" stop-color="#F7DD43" stop-opacity="0"/>
</linearGradient>
<linearGradient id="paint28_linear_122_130" x1="42.5" y1="479" x2="42.5" y2="790.381" gradientUnits="userSpaceOnUse">
<stop stop-color="#F7DD43"/>
<stop offset="1" stop-color="#F7DD43" stop-opacity="0"/>
</linearGradient>
<linearGradient id="paint29_linear_122_130" x1="42.5" y1="479" x2="42.5" y2="790.381" gradientUnits="userSpaceOnUse">
<stop stop-color="#F7DD43"/>
<stop offset="1" stop-color="#F7DD43" stop-opacity="0"/>
</linearGradient>
<linearGradient id="paint30_linear_122_130" x1="42.5" y1="479" x2="42.5" y2="790.381" gradientUnits="userSpaceOnUse">
<stop stop-color="#F7DD43"/>
<stop offset="1" stop-color="#F7DD43" stop-opacity="0"/>
</linearGradient>
<linearGradient id="paint31_linear_122_130" x1="42.5" y1="479" x2="42.5" y2="790.381" gradientUnits="userSpaceOnUse">
<stop stop-color="#F7DD43"/>
<stop offset="1" stop-color="#F7DD43" stop-opacity="0"/>
</linearGradient>
<linearGradient id="paint32_linear_122_130" x1="42.5" y1="479" x2="42.5" y2="790.381" gradientUnits="userSpaceOnUse">
<stop stop-color="#F7DD43"/>
<stop offset="1" stop-color="#F7DD43" stop-opacity="0"/>
</linearGradient>
<linearGradient id="paint33_linear_122_130" x1="42.5" y1="479" x2="42.5" y2="790.381" gradientUnits="userSpaceOnUse">
<stop stop-color="#F7DD43"/>
<stop offset="1" stop-color="#F7DD43" stop-opacity="0"/>
</linearGradient>
<linearGradient id="paint34_linear_122_130" x1="42.5" y1="479" x2="42.5" y2="790.381" gradientUnits="userSpaceOnUse">
<stop stop-color="#F7DD43"/>
<stop offset="1" stop-color="#F7DD43" stop-opacity="0"/>
</linearGradient>
<linearGradient id="paint35_linear_122_130" x1="42.5" y1="479" x2="42.5" y2="790.381" gradientUnits="userSpaceOnUse">
<stop stop-color="#F7DD43"/>
<stop offset="1" stop-color="#F7DD43" stop-opacity="0"/>
</linearGradient>
<linearGradient id="paint36_linear_122_130" x1="42.5" y1="479" x2="42.5" y2="790.381" gradientUnits="userSpaceOnUse">
<stop stop-color="#F7DD43"/>
<stop offset="1" stop-color="#F7DD43" stop-opacity="0"/>
</linearGradient>
<linearGradient id="paint37_linear_122_130" x1="42.5" y1="479" x2="42.5" y2="790.381" gradientUnits="userSpaceOnUse">
<stop stop-color="#F7DD43"/>
<stop offset="1" stop-color="#F7DD43" stop-opacity="0"/>
</linearGradient>
<linearGradient id="paint38_linear_122_130" x1="42.5" y1="479" x2="42.5" y2="790.381" gradientUnits="userSpaceOnUse">
<stop stop-color="#F7DD43"/>
<stop offset="1" stop-color="#F7DD43" stop-opacity="0"/>
</linearGradient>
<linearGradient id="paint39_linear_122_130" x1="42.5" y1="479" x2="42.5" y2="790.381" gradientUnits="userSpaceOnUse">
<stop stop-color="#F7DD43"/>
<stop offset="1" stop-color="#F7DD43" stop-opacity="0"/>
</linearGradient>
<linearGradient id="paint40_linear_122_130" x1="42.5" y1="479" x2="42.5" y2="790.381" gradientUnits="userSpaceOnUse">
<stop stop-color="#F7DD43"/>
<stop offset="1" stop-color="#F7DD43" stop-opacity="0"/>
</linearGradient>
<linearGradient id="paint41_linear_122_130" x1="42.5" y1="479" x2="42.5" y2="790.381" gradientUnits="userSpaceOnUse">
<stop stop-color="#F7DD43"/>
<stop offset="1" stop-color="#F7DD43" stop-opacity="0"/>
</linearGradient>
<linearGradient id="paint42_linear_122_130" x1="42.5" y1="479" x2="42.5" y2="790.381" gradientUnits="userSpaceOnUse">
<stop stop-color="#F7DD43"/>
<stop offset="1" stop-color="#F7DD43" stop-opacity="0"/>
</linearGradient>
<linearGradient id="paint43_linear_122_130" x1="42.5" y1="479" x2="42.5" y2="790.381" gradientUnits="userSpaceOnUse">
<stop stop-color="#F7DD43"/>
<stop offset="1" stop-color="#F7DD43" stop-opacity="0"/>
</linearGradient>
<linearGradient id="paint44_linear_122_130" x1="42.5" y1="479" x2="42.5" y2="790.381" gradientUnits="userSpaceOnUse">
<stop stop-color="#F7DD43"/>
<stop offset="1" stop-color="#F7DD43" stop-opacity="0"/>
</linearGradient>
<linearGradient id="paint45_linear_122_130" x1="42.5" y1="479" x2="42.5" y2="790.381" gradientUnits="userSpaceOnUse">
<stop stop-color="#F7DD43"/>
<stop offset="1" stop-color="#F7DD43" stop-opacity="0"/>
</linearGradient>
<linearGradient id="paint46_linear_122_130" x1="42.5" y1="479" x2="42.5" y2="790.381" gradientUnits="userSpaceOnUse">
<stop stop-color="#F7DD43"/>
<stop offset="1" stop-color="#F7DD43" stop-opacity="0"/>
</linearGradient>
<linearGradient id="paint47_linear_122_130" x1="928.5" y1="179" x2="928.5" y2="477.818" gradientUnits="userSpaceOnUse">
<stop stop-color="#F7DD43"/>
<stop offset="1" stop-color="#F7DD43" stop-opacity="0"/>
</linearGradient>
<linearGradient id="paint48_linear_122_130" x1="928.5" y1="179" x2="928.5" y2="477.818" gradientUnits="userSpaceOnUse">
<stop stop-color="#F7DD43"/>
<stop offset="1" stop-color="#F7DD43" stop-opacity="0"/>
</linearGradient>
<linearGradient id="paint49_linear_122_130" x1="928.5" y1="179" x2="928.5" y2="477.818" gradientUnits="userSpaceOnUse">
<stop stop-color="#F7DD43"/>
<stop offset="1" stop-color="#F7DD43" stop-opacity="0"/>
</linearGradient>
<linearGradient id="paint50_linear_122_130" x1="928.5" y1="179" x2="928.5" y2="477.818" gradientUnits="userSpaceOnUse">
<stop stop-color="#F7DD43"/>
<stop offset="1" stop-color="#F7DD43" stop-opacity="0"/>
</linearGradient>
<linearGradient id="paint51_linear_122_130" x1="928.5" y1="179" x2="928.5" y2="477.818" gradientUnits="userSpaceOnUse">
<stop stop-color="#F7DD43"/>
<stop offset="1" stop-color="#F7DD43" stop-opacity="0"/>
</linearGradient>
<linearGradient id="paint52_linear_122_130" x1="928.5" y1="179" x2="928.5" y2="477.818" gradientUnits="userSpaceOnUse">
<stop stop-color="#F7DD43"/>
<stop offset="1" stop-color="#F7DD43" stop-opacity="0"/>
</linearGradient>
<linearGradient id="paint53_linear_122_130" x1="928.5" y1="179" x2="928.5" y2="477.818" gradientUnits="userSpaceOnUse">
<stop stop-color="#F7DD43"/>
<stop offset="1" stop-color="#F7DD43" stop-opacity="0"/>
</linearGradient>
<linearGradient id="paint54_linear_122_130" x1="928.5" y1="179" x2="928.5" y2="477.818" gradientUnits="userSpaceOnUse">
<stop stop-color="#F7DD43"/>
<stop offset="1" stop-color="#F7DD43" stop-opacity="0"/>
</linearGradient>
<linearGradient id="paint55_linear_122_130" x1="928.5" y1="179" x2="928.5" y2="477.818" gradientUnits="userSpaceOnUse">
<stop stop-color="#F7DD43"/>
<stop offset="1" stop-color="#F7DD43" stop-opacity="0"/>
</linearGradient>
<linearGradient id="paint56_linear_122_130" x1="928.5" y1="179" x2="928.5" y2="477.818" gradientUnits="userSpaceOnUse">
<stop stop-color="#F7DD43"/>
<stop offset="1" stop-color="#F7DD43" stop-opacity="0"/>
</linearGradient>
<linearGradient id="paint57_linear_122_130" x1="928.5" y1="179" x2="928.5" y2="477.818" gradientUnits="userSpaceOnUse">
<stop stop-color="#F7DD43"/>
<stop offset="1" stop-color="#F7DD43" stop-opacity="0"/>
</linearGradient>
<linearGradient id="paint58_linear_122_130" x1="928.5" y1="179" x2="928.5" y2="477.818" gradientUnits="userSpaceOnUse">
<stop stop-color="#F7DD43"/>
<stop offset="1" stop-color="#F7DD43" stop-opacity="0"/>
</linearGradient>
<linearGradient id="paint59_linear_122_130" x1="928.5" y1="179" x2="928.5" y2="477.818" gradientUnits="userSpaceOnUse">
<stop stop-color="#F7DD43"/>
<stop offset="1" stop-color="#F7DD43" stop-opacity="0"/>
</linearGradient>
<linearGradient id="paint60_linear_122_130" x1="928.5" y1="179" x2="928.5" y2="477.818" gradientUnits="userSpaceOnUse">
<stop stop-color="#F7DD43"/>
<stop offset="1" stop-color="#F7DD43" stop-opacity="0"/>
</linearGradient>
<linearGradient id="paint61_linear_122_130" x1="928.5" y1="179" x2="928.5" y2="477.818" gradientUnits="userSpaceOnUse">
<stop stop-color="#F7DD43"/>
<stop offset="1" stop-color="#F7DD43" stop-opacity="0"/>
</linearGradient>
<linearGradient id="paint62_linear_122_130" x1="928.5" y1="179" x2="928.5" y2="477.818" gradientUnits="userSpaceOnUse">
<stop stop-color="#F7DD43"/>
<stop offset="1" stop-color="#F7DD43" stop-opacity="0"/>
</linearGradient>
<linearGradient id="paint63_linear_122_130" x1="928.5" y1="179" x2="928.5" y2="477.818" gradientUnits="userSpaceOnUse">
<stop stop-color="#F7DD43"/>
<stop offset="1" stop-color="#F7DD43" stop-opacity="0"/>
</linearGradient>
<linearGradient id="paint64_linear_122_130" x1="928.5" y1="179" x2="928.5" y2="477.818" gradientUnits="userSpaceOnUse">
<stop stop-color="#F7DD43"/>
<stop offset="1" stop-color="#F7DD43" stop-opacity="0"/>
</linearGradient>
<linearGradient id="paint65_linear_122_130" x1="928.5" y1="179" x2="928.5" y2="477.818" gradientUnits="userSpaceOnUse">
<stop stop-color="#F7DD43"/>
<stop offset="1" stop-color="#F7DD43" stop-opacity="0"/>
</linearGradient>
<linearGradient id="paint66_linear_122_130" x1="928.5" y1="179" x2="928.5" y2="477.818" gradientUnits="userSpaceOnUse">
<stop stop-color="#F7DD43"/>
<stop offset="1" stop-color="#F7DD43" stop-opacity="0"/>
</linearGradient>
<linearGradient id="paint67_linear_122_130" x1="928.5" y1="179" x2="928.5" y2="477.818" gradientUnits="userSpaceOnUse">
<stop stop-color="#F7DD43"/>
<stop offset="1" stop-color="#F7DD43" stop-opacity="0"/>
</linearGradient>
<linearGradient id="paint68_linear_122_130" x1="928.5" y1="179" x2="928.5" y2="477.818" gradientUnits="userSpaceOnUse">
<stop stop-color="#F7DD43"/>
<stop offset="1" stop-color="#F7DD43" stop-opacity="0"/>
</linearGradient>
<linearGradient id="paint69_linear_122_130" x1="928.5" y1="179" x2="928.5" y2="477.818" gradientUnits="userSpaceOnUse">
<stop stop-color="#F7DD43"/>
<stop offset="1" stop-color="#F7DD43" stop-opacity="0"/>
</linearGradient>
<linearGradient id="paint70_linear_122_130" x1="928.5" y1="179" x2="928.5" y2="477.818" gradientUnits="userSpaceOnUse">
<stop stop-color="#F7DD43"/>
<stop offset="1" stop-color="#F7DD43" stop-opacity="0"/>
</linearGradient>
<linearGradient id="paint71_linear_122_130" x1="928.5" y1="179" x2="928.5" y2="477.818" gradientUnits="userSpaceOnUse">
<stop stop-color="#F7DD43"/>
<stop offset="1" stop-color="#F7DD43" stop-opacity="0"/>
</linearGradient>
<linearGradient id="paint72_linear_122_130" x1="928.5" y1="179" x2="928.5" y2="477.818" gradientUnits="userSpaceOnUse">
<stop stop-color="#F7DD43"/>
<stop offset="1" stop-color="#F7DD43" stop-opacity="0"/>
</linearGradient>
<linearGradient id="paint73_linear_122_130" x1="928.5" y1="179" x2="928.5" y2="477.818" gradientUnits="userSpaceOnUse">
<stop stop-color="#F7DD43"/>
<stop offset="1" stop-color="#F7DD43" stop-opacity="0"/>
</linearGradient>
<linearGradient id="paint74_linear_122_130" x1="928.5" y1="179" x2="928.5" y2="477.818" gradientUnits="userSpaceOnUse">
<stop stop-color="#F7DD43"/>
<stop offset="1" stop-color="#F7DD43" stop-opacity="0"/>
</linearGradient>
<linearGradient id="paint75_linear_122_130" x1="928.5" y1="179" x2="928.5" y2="477.818" gradientUnits="userSpaceOnUse">
<stop stop-color="#F7DD43"/>
<stop offset="1" stop-color="#F7DD43" stop-opacity="0"/>
</linearGradient>
<linearGradient id="paint76_linear_122_130" x1="928.5" y1="179" x2="928.5" y2="477.818" gradientUnits="userSpaceOnUse">
<stop stop-color="#F7DD43"/>
<stop offset="1" stop-color="#F7DD43" stop-opacity="0"/>
</linearGradient>
<linearGradient id="paint77_linear_122_130" x1="928.5" y1="179" x2="928.5" y2="477.818" gradientUnits="userSpaceOnUse">
<stop stop-color="#F7DD43"/>
<stop offset="1" stop-color="#F7DD43" stop-opacity="0"/>
</linearGradient>
<linearGradient id="paint78_linear_122_130" x1="928.5" y1="179" x2="928.5" y2="477.818" gradientUnits="userSpaceOnUse">
<stop stop-color="#F7DD43"/>
<stop offset="1" stop-color="#F7DD43" stop-opacity="0"/>
</linearGradient>
<linearGradient id="paint79_linear_122_130" x1="928.5" y1="179" x2="928.5" y2="477.818" gradientUnits="userSpaceOnUse">
<stop stop-color="#F7DD43"/>
<stop offset="1" stop-color="#F7DD43" stop-opacity="0"/>
</linearGradient>
<linearGradient id="paint80_linear_122_130" x1="928.5" y1="179" x2="928.5" y2="477.818" gradientUnits="userSpaceOnUse">
<stop stop-color="#F7DD43"/>
<stop offset="1" stop-color="#F7DD43" stop-opacity="0"/>
</linearGradient>
<linearGradient id="paint81_linear_122_130" x1="928.5" y1="179" x2="928.5" y2="477.818" gradientUnits="userSpaceOnUse">
<stop stop-color="#F7DD43"/>
<stop offset="1" stop-color="#F7DD43" stop-opacity="0"/>
</linearGradient>
<linearGradient id="paint82_linear_122_130" x1="928.5" y1="179" x2="928.5" y2="477.818" gradientUnits="userSpaceOnUse">
<stop stop-color="#F7DD43"/>
<stop offset="1" stop-color="#F7DD43" stop-opacity="0"/>
</linearGradient>
<linearGradient id="paint83_linear_122_130" x1="928.5" y1="179" x2="928.5" y2="477.818" gradientUnits="userSpaceOnUse">
<stop stop-color="#F7DD43"/>
<stop offset="1" stop-color="#F7DD43" stop-opacity="0"/>
</linearGradient>
<linearGradient id="paint84_linear_122_130" x1="928.5" y1="179" x2="928.5" y2="477.818" gradientUnits="userSpaceOnUse">
<stop stop-color="#F7DD43"/>
<stop offset="1" stop-color="#F7DD43" stop-opacity="0"/>
</linearGradient>
<linearGradient id="paint85_linear_122_130" x1="928.5" y1="179" x2="928.5" y2="477.818" gradientUnits="userSpaceOnUse">
<stop stop-color="#F7DD43"/>
<stop offset="1" stop-color="#F7DD43" stop-opacity="0"/>
</linearGradient>
<linearGradient id="paint86_linear_122_130" x1="928.5" y1="179" x2="928.5" y2="477.818" gradientUnits="userSpaceOnUse">
<stop stop-color="#F7DD43"/>
<stop offset="1" stop-color="#F7DD43" stop-opacity="0"/>
</linearGradient>
<linearGradient id="paint87_linear_122_130" x1="928.5" y1="179" x2="928.5" y2="477.818" gradientUnits="userSpaceOnUse">
<stop stop-color="#F7DD43"/>
<stop offset="1" stop-color="#F7DD43" stop-opacity="0"/>
</linearGradient>
<linearGradient id="paint88_linear_122_130" x1="928.5" y1="179" x2="928.5" y2="477.818" gradientUnits="userSpaceOnUse">
<stop stop-color="#F7DD43"/>
<stop offset="1" stop-color="#F7DD43" stop-opacity="0"/>
</linearGradient>
<linearGradient id="paint89_linear_122_130" x1="928.5" y1="179" x2="928.5" y2="477.818" gradientUnits="userSpaceOnUse">
<stop stop-color="#F7DD43"/>
<stop offset="1" stop-color="#F7DD43" stop-opacity="0"/>
</linearGradient>
<linearGradient id="paint90_linear_122_130" x1="928.5" y1="179" x2="928.5" y2="477.818" gradientUnits="userSpaceOnUse">
<stop stop-color="#F7DD43"/>
<stop offset="1" stop-color="#F7DD43" stop-opacity="0"/>
</linearGradient>
<linearGradient id="paint91_linear_122_130" x1="928.5" y1="179" x2="928.5" y2="477.818" gradientUnits="userSpaceOnUse">
<stop stop-color="#F7DD43"/>
<stop offset="1" stop-color="#F7DD43" stop-opacity="0"/>
</linearGradient>
<linearGradient id="paint92_linear_122_130" x1="928.5" y1="179" x2="928.5" y2="477.818" gradientUnits="userSpaceOnUse">
<stop stop-color="#F7DD43"/>
<stop offset="1" stop-color="#F7DD43" stop-opacity="0"/>
</linearGradient>
<linearGradient id="paint93_linear_122_130" x1="928.5" y1="179" x2="928.5" y2="477.818" gradientUnits="userSpaceOnUse">
<stop stop-color="#F7DD43"/>
<stop offset="1" stop-color="#F7DD43" stop-opacity="0"/>
</linearGradient>
<clipPath id="clip0_122_130">
<rect width="1024" height="753" fill="white"/>
</clipPath>
</defs>
</svg>
